<svg xmlns="http://www.w3.org/2000/svg" xmlns:xlink="http://www.w3.org/1999/xlink" width="9mm" height="9mm" viewBox="0 0 9 9"><defs><linearGradient id="a"><stop offset="0" style="stop-color:#252525;stop-opacity:1"/><stop offset="1" style="stop-color:#4e4e4e;stop-opacity:1"/></linearGradient><linearGradient xlink:href="#a" id="b" x1="1.209" x2="7.791" y1="7.569" y2="1.431" gradientUnits="userSpaceOnUse"/></defs><path d="M.025.025h8.95v8.95H.025z" style="fill:url(#b);stroke:none;stroke-width:.0495756;paint-order:stroke markers fill"/><path d="M7.066 7.111h-.941V5.836h-3.31v1.275h-.942V4.515q0-.569.196-1.047.195-.478.543-.822.347-.344.822-.536.474-.192 1.036-.192h2.122q.098 0 .185.036.086.036.152.102.065.065.101.152t.036.184zM2.815 4.895h3.31V2.86H4.47q-.044 0-.185.014-.138.01-.322.062-.181.05-.384.155t-.373.29q-.17.185-.283.464-.108.275-.108.67Z" style="font-size:7.41689px;font-family:Audiowide;-inkscape-font-specification:Audiowide;baseline-shift:baseline;display:inline;overflow:visible;opacity:1;fill:#b700d7;stroke:#b700d7;stroke-width:.5;stroke-dasharray:none;stroke-opacity:1;paint-order:stroke markers fill;stop-color:#000;stop-opacity:1"/></svg>