<svg xmlns="http://www.w3.org/2000/svg" xmlns:xlink="http://www.w3.org/1999/xlink" width="9mm" height="9mm" viewBox="0 0 9 9"><defs><filter id="d" width="1" height="1" x="0" y="0" style="color-interpolation-filters:sRGB"><feColorMatrix values="1 0 0 0 0 0 1 0 0 0 0 0 1 0 0 0 0 0 1000 -500"/></filter><filter id="e" width="1" height="1" x="0" y="0" style="color-interpolation-filters:sRGB"><feColorMatrix values="1 0 0 0 0 0 1 0 0 0 0 0 1 0 0 0 0 0 1000 -500"/></filter><filter id="b" width="1" height="1" x="0" y="0" style="color-interpolation-filters:sRGB"><feColorMatrix values="1 0 0 0 0 0 1 0 0 0 0 0 1 0 0 0 0 0 1000 -500"/></filter><linearGradient id="a"><stop offset="0" style="stop-color:#252525;stop-opacity:1"/><stop offset="1" style="stop-color:#4e4e4e;stop-opacity:1"/></linearGradient><linearGradient xlink:href="#a" id="c" x1="1.209" x2="7.791" y1="7.569" y2="1.431" gradientUnits="userSpaceOnUse"/></defs><g style="stroke:none;filter:url(#b)"><path d="M.025.025h8.95v8.95H.025z" style="fill:url(#c);stroke:none;stroke-width:.0495756;paint-order:stroke markers fill;filter:url(#d)"/><g style="opacity:1;filter:url(#e)"><path d="M4.469 1.668q-.606 0-1.13.21a2.7 2.7 0 0 0-.903.59 2.7 2.7 0 0 0-.598.905 3 3 0 0 0-.215 1.14v2.848h1.441V6.086h2.811V7.36h1.441V2.393a.725.725 0 0 0-.725-.725Zm0 .5h2.123c.034 0 .06.006.088.018a.21.21 0 0 1 .119.119.2.2 0 0 1 .017.088V6.86h-.441V5.586h-3.81V6.86h-.442V4.514q0-.523.178-.952a2.2 2.2 0 0 1 .486-.738q.31-.308.74-.482c.285-.115.596-.174.942-.174m0 .441c-.057 0-.112.006-.21.016q-.165.015-.363.07h-.001q-.211.06-.432.174-.244.128-.442.342a1.8 1.8 0 0 0-.33.541 2.1 2.1 0 0 0-.127.762v.63h3.811V2.61Zm0 .5h1.406v1.536h-2.81v-.131c0-.24.034-.433.091-.578q.1-.242.233-.385.144-.155.304-.239.184-.094.336-.136a1.5 1.5 0 0 1 .276-.053h.006c.091-.01.157-.014.158-.014" style="font-size:7.41689px;font-family:Audiowide;-inkscape-font-specification:Audiowide;baseline-shift:baseline;display:inline;overflow:visible;vector-effect:none;fill:#b700d7;paint-order:stroke markers fill;enable-background:accumulate;stop-color:#000;stop-opacity:1"/><path d="M7.066 7.111h-.941V5.836h-3.31v1.275h-.942V4.515q0-.569.196-1.047.195-.478.543-.822.347-.344.822-.536.474-.192 1.036-.192h2.122q.098 0 .185.036.086.036.152.102.065.065.101.152t.036.184zM2.815 4.895h3.31V2.86H4.47q-.044 0-.185.014-.138.01-.322.062-.181.05-.384.155t-.373.29q-.17.185-.283.464-.108.275-.108.67Z" style="font-size:7.41689px;font-family:Audiowide;-inkscape-font-specification:Audiowide;baseline-shift:baseline;display:inline;overflow:visible;vector-effect:none;fill:#b700d7;paint-order:stroke markers fill;enable-background:accumulate;stop-color:#000;stop-opacity:1"/></g></g></svg>