<?xml version="1.0" encoding="UTF-8"?> <svg xmlns="http://www.w3.org/2000/svg" xml:space="preserve" width="2048" height="2048" preserveAspectRatio="none" version="1.1"><style>text{font-weight:500;font-size:32px;font-family:Manrope}.t{text-align:center;text-anchor:middle}</style><path d="M437-803h2048v2048H437z" style="fill:#969696" transform="translate(-437 803)"></path><path d="M437-803h256v256H437zm512 0h256v256H949zm512 0h256v256h-256zm512 0h256v256h-256zM693-547h256v256H693zm512 0h256v256h-256zm512 0h256v256h-256zm512 0h256v256h-256zM437-291h256v256H437zm512 0h256v256H949zm512 0h256v256h-256zm512 0h256v256h-256zM693-35h256v256H693zm512 0h256v256h-256zm512 0h256v256h-256zm512 0h256v256h-256zM437 221h256v256H437zm512 0h256v256H949zm512 0h256v256h-256zm512 0h256v256h-256zM693 477h256v256H693zm512 0h256v256h-256zm512 0h256v256h-256zm512 0h256v256h-256zM437 733h256v256H437zm512 0h256v256H949zm512 0h256v256h-256zm512 0h256v256h-256zM693 989h256v256H693zm512 0h256v256h-256zm512 0h256v256h-256zm512 0h256v256h-256z" style="fill:#404040" transform="translate(-437 803)"></path><text x="-29" style="fill:#da1aaa" transform="matrix(3.4 0 0 3.4 177.37 151.496)"><tspan x="-16.832" y="0"><tspan class="t">A1</tspan></tspan></text><text x="-15" style="fill:#801ce2" transform="matrix(3.4 0 0 3.4 431.37 153.496)"><tspan x="-16.4" y="0"><tspan class="t">B1</tspan></tspan></text><text x="-15" style="fill:#8088ff" transform="matrix(3.4 0 0 3.4 693.37 154.496)"><tspan x="-18.064" y="0"><tspan class="t">C1</tspan></tspan></text><text x="-15" style="fill:#19e3e3" transform="matrix(3.4 0 0 3.4 948.37 158.496)"><tspan x="-17.392" y="0"><tspan class="t">D1</tspan></tspan></text><text x="-15" style="fill:#1bd449" transform="matrix(3.4 0 0 3.4 1201.37 149.496)"><tspan x="-15.696" y="0"><tspan class="t">E1</tspan></tspan></text><text x="-15" style="fill:#83d72d" transform="matrix(3.4 0 0 3.4 1460.37 158.496)"><tspan x="-14.656" y="0"><tspan class="t">F1</tspan></tspan></text><text x="-15" style="fill:#c99e1d" transform="matrix(3.4 0 0 3.4 1711.37 157.496)"><tspan x="-17.92" y="0"><tspan class="t">G1</tspan></tspan></text><text x="-15" style="fill:#c99e1d" transform="matrix(3.4 0 0 3.4 1977.37 416.496)"><tspan x="-20.408" y="0"><tspan class="t">H2</tspan></tspan></text><text x="-15" style="fill:#d53131" transform="matrix(3.4 0 0 3.4 1974.37 158.496)"><tspan x="-17.648" y="0"><tspan class="t">H1</tspan></tspan></text><text x="-15" style="fill:#801ce2" transform="matrix(3.4 0 0 3.4 168.37 412.496)"><tspan x="-19.592" y="0"><tspan class="t">A2</tspan></tspan></text><text x="-15" style="fill:#8088ff" transform="matrix(3.4 0 0 3.4 438.37 405.496)"><tspan x="-19.16" y="0"><tspan class="t">B2</tspan></tspan></text><text x="-15" style="fill:#19e3e3" transform="matrix(3.4 0 0 3.4 691.37 412.496)"><tspan x="-20.824" y="0"><tspan class="t">C2</tspan></tspan></text><text x="-15" style="fill:#1bd449" transform="matrix(3.4 0 0 3.4 943.37 406.496)"><tspan x="-20.152" y="0"><tspan class="t">D2</tspan></tspan></text><text x="-15" style="fill:#83d72d" transform="matrix(3.4 0 0 3.4 1202.37 409.496)"><tspan x="-18.456" y="0"><tspan class="t">E2</tspan></tspan></text><text x="-15" style="fill:#c99e1d" transform="matrix(3.4 0 0 3.4 1454.37 408.496)"><tspan x="-17.416" y="0"><tspan class="t">F2</tspan></tspan></text><text x="-15" style="fill:#d53131" transform="matrix(3.4 0 0 3.4 1711.37 417.496)"><tspan x="-20.68" y="0"><tspan class="t">G2</tspan></tspan></text><text x="-15" style="fill:#c99e1d" transform="matrix(3.4 0 0 3.4 1716.37 666.496)"><tspan x="-20.424" y="0"><tspan class="t">G3</tspan></tspan></text><text x="-15" style="fill:#8088ff" transform="matrix(3.4 0 0 3.4 174.37 661.496)"><tspan x="-19.336" y="0"><tspan class="t">A3</tspan></tspan></text><text x="-15" style="fill:#19e3e3" transform="matrix(3.4 0 0 3.4 432.37 668.496)"><tspan x="-18.904" y="0"><tspan class="t">B3</tspan></tspan></text><text x="-15" style="fill:#1bd449" transform="matrix(3.4 0 0 3.4 688.37 667.496)"><tspan x="-20.568" y="0"><tspan class="t">C3</tspan></tspan></text><text x="-15" style="fill:#83d72d" transform="matrix(3.4 0 0 3.4 944.37 667.496)"><tspan x="-19.896" y="0"><tspan class="t">D3</tspan></tspan></text><text x="-15" style="fill:#83d72d" transform="matrix(3.4 0 0 3.4 1976.37 666.496)"><tspan x="-20.152" y="0"><tspan class="t">H3</tspan></tspan></text><text x="-15" style="fill:#c99e1d" transform="matrix(3.4 0 0 3.4 1203.37 669.496)"><tspan x="-18.2" y="0"><tspan class="t">E3</tspan></tspan></text><text x="-15" style="fill:#d53131" transform="matrix(3.4 0 0 3.4 1455.37 665.496)"><tspan x="-17.16" y="0"><tspan class="t">F3</tspan></tspan></text><text x="-15" style="fill:#c99e1d" transform="matrix(3.4 0 0 3.4 1461.37 923.496)"><tspan x="-17.536" y="0"><tspan class="t">F4</tspan></tspan></text><text x="-15" style="fill:#19e3e3" transform="matrix(3.4 0 0 3.4 182.37 916.496)"><tspan x="-20.432" y="0"><tspan class="t">A4</tspan></tspan></text><text x="-15" style="fill:#19e3e3" transform="matrix(3.4 0 0 3.4 1975.37 1180.496)"><tspan x="-20.44" y="0"><tspan class="t">H5</tspan></tspan></text><text x="-15" style="fill:#1bd449" transform="matrix(3.4 0 0 3.4 434.37 921.496)"><tspan x="-19.44" y="0"><tspan class="t">B4</tspan></tspan></text><text x="-15" style="fill:#1bd449" transform="matrix(3.4 0 0 3.4 1976.37 928.496)"><tspan x="-20.688" y="0"><tspan class="t">H4</tspan></tspan></text><text x="-15" style="fill:#83d72d" transform="matrix(3.4 0 0 3.4 688.37 924.496)"><tspan x="-20.784" y="0"><tspan class="t">C4</tspan></tspan></text><text x="-15" style="fill:#83d72d" transform="matrix(3.4 0 0 3.4 1723.37 919.496)"><tspan x="-20.64" y="0"><tspan class="t">G4</tspan></tspan></text><text x="-15" style="fill:#c99e1d" transform="matrix(3.4 0 0 3.4 947.37 920.496)"><tspan x="-20.112" y="0"><tspan class="t">D4</tspan></tspan></text><text x="-15" style="fill:#d53131" transform="matrix(3.4 0 0 3.4 1207.37 924.496)"><tspan x="-18.736" y="0"><tspan class="t">E4</tspan></tspan></text><text x="-15" style="fill:#c99e1d" transform="matrix(3.4 0 0 3.4 1204.37 1175.496)"><tspan x="-18.488" y="0"><tspan class="t">E5</tspan></tspan></text><text x="-15" style="fill:#1bd449" transform="matrix(3.4 0 0 3.4 175.37 1168.496)"><tspan x="-19.624" y="0"><tspan class="t">A5</tspan></tspan></text><text x="-15" style="fill:#1bd449" transform="matrix(3.4 0 0 3.4 1725.37 1177.496)"><tspan x="-20.712" y="0"><tspan class="t">G5</tspan></tspan></text><text x="-15" style="fill:#83d72d" transform="matrix(3.4 0 0 3.4 434.37 1176.496)"><tspan x="-19.192" y="0"><tspan class="t">B5</tspan></tspan></text><text x="-15" style="fill:#83d72d" transform="matrix(3.4 0 0 3.4 1464.37 1177.496)"><tspan x="-17.448" y="0"><tspan class="t">F5</tspan></tspan></text><text x="-15" style="fill:#c99e1d" transform="matrix(3.4 0 0 3.4 691.37 1180.496)"><tspan x="-20.856" y="0"><tspan class="t">C5</tspan></tspan></text><text x="-15" style="fill:#d53131" transform="matrix(3.4 0 0 3.4 948.37 1181.496)"><tspan x="-20.184" y="0"><tspan class="t">D5</tspan></tspan></text><text x="-15" style="fill:#c99e1d" transform="matrix(3.4 0 0 3.4 958.37 1433.496)"><tspan x="-20.832" y="0"><tspan class="t">D6</tspan></tspan></text><text x="-15" style="fill:#1bd449" transform="matrix(3.4 0 0 3.4 1460.37 1433.496)"><tspan x="-18.096" y="0"><tspan class="t">F6</tspan></tspan></text><text x="-15" style="fill:#83d72d" transform="matrix(3.4 0 0 3.4 175.37 1437.496)"><tspan x="-20.272" y="0"><tspan class="t">A6</tspan></tspan></text><text x="-15" style="fill:#83d72d" transform="matrix(3.4 0 0 3.4 1212.37 1433.496)"><tspan x="-19.136" y="0"><tspan class="t">E6</tspan></tspan></text><text x="-15" style="fill:#c99e1d" transform="matrix(3.4 0 0 3.4 437.37 1431.496)"><tspan x="-19.84" y="0"><tspan class="t">B6</tspan></tspan></text><text x="-15" style="fill:#d53131" transform="matrix(3.4 0 0 3.4 697.37 1437.496)"><tspan x="-21.504" y="0"><tspan class="t">C6</tspan></tspan></text><text x="-15" style="fill:#c99e1d" transform="matrix(3.4 0 0 3.4 692.37 1689.496)"><tspan x="-19.768" y="0"><tspan class="t">C7</tspan></tspan></text><text x="-15" style="fill:#1bd449" transform="matrix(3.4 0 0 3.4 1216.37 1691.496)"><tspan x="-17.4" y="0"><tspan class="t">E7</tspan></tspan></text><text x="-15" style="fill:#83d72d" transform="matrix(3.4 0 0 3.4 952.37 1691.496)"><tspan x="-19.096" y="0"><tspan class="t">D7</tspan></tspan></text><text x="-15" style="fill:#c99e1d" transform="matrix(3.4 0 0 3.4 174.37 1689.496)"><tspan x="-18.536" y="0"><tspan class="t">A7</tspan></tspan></text><text x="-15" style="fill:#d53131" transform="matrix(3.4 0 0 3.4 436.37 1693.496)"><tspan x="-18.104" y="0"><tspan class="t">B7</tspan></tspan></text><text x="-15" style="fill:#c99e1d" transform="matrix(3.4 0 0 3.4 436.37 1947.496)"><tspan x="-19.36" y="0"><tspan class="t">B8</tspan></tspan></text><text x="-15" style="fill:#1bd449" transform="matrix(3.4 0 0 3.4 951.37 1944.496)"><tspan x="-20.352" y="0"><tspan class="t">D8</tspan></tspan></text><text x="-15" style="fill:#83d72d" transform="matrix(3.4 0 0 3.4 695.37 1946.496)"><tspan x="-21.024" y="0"><tspan class="t">C8</tspan></tspan></text><text x="-15" style="fill:#d53131" transform="matrix(3.4 0 0 3.4 180.37 1948.496)"><tspan x="-19.792" y="0"><tspan class="t">A8</tspan></tspan></text><text x="-15" style="fill:#19e3e3" transform="matrix(3.4 0 0 3.4 1716.37 1438.496)"><tspan x="-21.36" y="0"><tspan class="t">G6</tspan></tspan></text><text x="-15" style="fill:#8088ff;fill-opacity:1" transform="matrix(3.4 0 0 3.4 1979.37 1435.496)"><tspan x="-21.088" y="0"><tspan class="t">H6</tspan></tspan></text><text x="-15" style="fill:#19e3e3" transform="matrix(3.4 0 0 3.4 1463.37 1689.496)"><tspan x="-16.36" y="0"><tspan class="t">F7</tspan></tspan></text><text x="-15" style="fill:#8088ff;fill-opacity:1" transform="matrix(3.4 0 0 3.4 1718.37 1691.496)"><tspan x="-19.624" y="0"><tspan class="t">G7</tspan></tspan></text><text x="-15" style="fill:#801ce2;fill-opacity:1" transform="matrix(3.4 0 0 3.4 1977.37 1696.496)"><tspan x="-19.352" y="0"><tspan class="t">H7</tspan></tspan></text><text x="-15" style="fill:#19e3e3" transform="matrix(3.4 0 0 3.4 1207.37 1945.496)"><tspan x="-18.656" y="0"><tspan class="t">E8</tspan></tspan></text><text x="-15" style="fill:#8088ff;fill-opacity:1" transform="matrix(3.4 0 0 3.4 1462.37 1950.496)"><tspan x="-17.616" y="0"><tspan class="t">F8</tspan></tspan></text><text x="-15" style="fill:#801ce2;fill-opacity:1" transform="matrix(3.4 0 0 3.4 1715.37 1947.496)"><tspan x="-20.88" y="0"><tspan class="t">G8</tspan></tspan></text><text x="-15" style="fill:#da1aaa;fill-opacity:1" transform="matrix(3.4 0 0 3.4 1975.37 1949.496)"><tspan x="-20.608" y="0"><tspan class="t">H8</tspan></tspan></text></svg> 